<svg viewBox="0 0 93 25" fill="none" xmlns="http://www.w3.org/2000/svg">
<path d="M21 5.5V3C21 1.89543 20.1046 1 19 1H3C1.89543 1 1 1.89543 1 3V19C1 20.1046 1.89543 21 3 21H5" stroke="white" stroke-width="1.5"/>
<path d="M11.5 20L13.5 9M16 20L18 9M10 12.3478H20.5M9 16.6522H19.5" stroke="white" stroke-width="1.5"/>
<path d="M23 5H7C5.89543 5 5 5.89543 5 7V22C5 23.1046 5.89543 24 7 24H23C24.1046 24 25 23.1046 25 22V19.3784V14.7568V9.87838V7C25 5.89543 24.1046 5 23 5Z" stroke="white" stroke-width="1.5"/>
<path d="M30.064 18V11.098H31.478V11.91H31.702C31.8327 11.6673 32.0427 11.4527 32.332 11.266C32.6213 11.0793 33.0133 10.986 33.508 10.986C34.0213 10.986 34.432 11.0933 34.74 11.308C35.0573 11.5133 35.2953 11.7793 35.454 12.106H35.678C35.8367 11.7887 36.0653 11.5227 36.364 11.308C36.672 11.0933 37.106 10.986 37.666 10.986C38.114 10.986 38.5107 11.0793 38.856 11.266C39.2013 11.4433 39.4767 11.714 39.682 12.078C39.8873 12.4327 39.99 12.876 39.99 13.408V18H38.548V13.52C38.548 13.1 38.4313 12.778 38.198 12.554C37.974 12.3207 37.652 12.204 37.232 12.204C36.784 12.204 36.4247 12.3487 36.154 12.638C35.8833 12.9273 35.748 13.3427 35.748 13.884V18H34.306V13.52C34.306 13.1 34.1893 12.778 33.956 12.554C33.732 12.3207 33.41 12.204 32.99 12.204C32.542 12.204 32.1827 12.3487 31.912 12.638C31.6413 12.9273 31.506 13.3427 31.506 13.884V18H30.064ZM42.0679 18V8.2H43.5099V13.786H43.7339L46.4499 11.098H48.3679L44.8819 14.444L48.4799 18H46.5759L43.7339 15.13H43.5099V18H42.0679ZM49.286 15.074V13.758H53.43V15.074H49.286ZM55.521 18V11.098H56.935V12.134H57.159C57.2897 11.854 57.523 11.5927 57.859 11.35C58.195 11.1073 58.6944 10.986 59.357 10.986C59.8797 10.986 60.3417 11.1027 60.743 11.336C61.1537 11.5693 61.4757 11.9007 61.709 12.33C61.9424 12.75 62.059 13.2587 62.059 13.856V18H60.617V13.968C60.617 13.3707 60.4677 12.932 60.169 12.652C59.8704 12.3627 59.4597 12.218 58.937 12.218C58.3397 12.218 57.859 12.414 57.495 12.806C57.1404 13.198 56.963 13.7673 56.963 14.514V18H55.521ZM67.3683 18.196C66.6776 18.196 66.0616 18.056 65.5203 17.776C64.9883 17.4867 64.5683 17.076 64.2603 16.544C63.9523 16.012 63.7983 15.382 63.7983 14.654V14.444C63.7983 13.716 63.9523 13.0907 64.2603 12.568C64.5683 12.036 64.9883 11.6253 65.5203 11.336C66.0616 11.0467 66.6776 10.902 67.3683 10.902C68.059 10.902 68.675 11.0467 69.2163 11.336C69.7576 11.6253 70.1823 12.036 70.4903 12.568C70.7983 13.0907 70.9523 13.716 70.9523 14.444V14.654C70.9523 15.382 70.7983 16.012 70.4903 16.544C70.1823 17.076 69.7576 17.4867 69.2163 17.776C68.675 18.056 68.059 18.196 67.3683 18.196ZM67.3683 16.908C68.003 16.908 68.5163 16.7073 68.9083 16.306C69.3096 15.8953 69.5103 15.3307 69.5103 14.612V14.486C69.5103 13.7673 69.3143 13.2073 68.9223 12.806C68.5303 12.3953 68.0123 12.19 67.3683 12.19C66.743 12.19 66.2296 12.3953 65.8283 12.806C65.4363 13.2073 65.2403 13.7673 65.2403 14.486V14.612C65.2403 15.3307 65.4363 15.8953 65.8283 16.306C66.2296 16.7073 66.743 16.908 67.3683 16.908ZM75.0778 18C74.6578 18 74.3218 17.874 74.0698 17.622C73.8272 17.37 73.7058 17.034 73.7058 16.614V12.316H71.8018V11.098H73.7058V8.816H75.1478V11.098H77.2058V12.316H75.1478V16.362C75.1478 16.642 75.2785 16.782 75.5398 16.782H76.9818V18H75.0778ZM81.8178 18.196C81.1178 18.196 80.5065 18.0513 79.9838 17.762C79.4612 17.4633 79.0505 17.048 78.7518 16.516C78.4625 15.9747 78.3178 15.3493 78.3178 14.64V14.472C78.3178 13.7533 78.4625 13.128 78.7518 12.596C79.0412 12.0547 79.4425 11.6393 79.9558 11.35C80.4785 11.0513 81.0805 10.902 81.7618 10.902C82.4245 10.902 83.0032 11.0513 83.4978 11.35C84.0018 11.6393 84.3938 12.0453 84.6738 12.568C84.9538 13.0907 85.0938 13.702 85.0938 14.402V14.948H79.7878C79.8065 15.5547 80.0072 16.04 80.3898 16.404C80.7818 16.7587 81.2672 16.936 81.8458 16.936C82.3872 16.936 82.7932 16.8147 83.0638 16.572C83.3438 16.3293 83.5585 16.0493 83.7078 15.732L84.8978 16.348C84.7672 16.6093 84.5758 16.8847 84.3238 17.174C84.0812 17.4633 83.7592 17.706 83.3578 17.902C82.9565 18.098 82.4432 18.196 81.8178 18.196ZM79.8018 13.842H83.6238C83.5865 13.3193 83.3998 12.9133 83.0638 12.624C82.7278 12.3253 82.2892 12.176 81.7478 12.176C81.2065 12.176 80.7632 12.3253 80.4178 12.624C80.0818 12.9133 79.8765 13.3193 79.8018 13.842ZM89.6576 18.196C88.7803 18.196 88.0523 18 87.4736 17.608C86.895 17.216 86.5403 16.6233 86.4096 15.83L87.7536 15.508C87.8283 15.8907 87.9543 16.194 88.1316 16.418C88.309 16.642 88.5283 16.8007 88.7896 16.894C89.0603 16.9873 89.3496 17.034 89.6576 17.034C90.115 17.034 90.465 16.9453 90.7076 16.768C90.9596 16.5907 91.0856 16.362 91.0856 16.082C91.0856 15.802 90.969 15.5967 90.7356 15.466C90.5023 15.3353 90.157 15.228 89.6996 15.144L89.2236 15.06C88.757 14.976 88.3323 14.8547 87.9496 14.696C87.567 14.5373 87.2636 14.318 87.0396 14.038C86.8156 13.758 86.7036 13.3987 86.7036 12.96C86.7036 12.3067 86.9463 11.8027 87.4316 11.448C87.917 11.084 88.561 10.902 89.3636 10.902C90.1383 10.902 90.773 11.0793 91.2676 11.434C91.7716 11.7793 92.0983 12.2507 92.2476 12.848L90.9036 13.226C90.8196 12.806 90.6423 12.512 90.3716 12.344C90.101 12.1667 89.765 12.078 89.3636 12.078C88.9716 12.078 88.6636 12.1527 88.4396 12.302C88.2156 12.442 88.1036 12.6427 88.1036 12.904C88.1036 13.184 88.211 13.3893 88.4256 13.52C88.6496 13.6507 88.9483 13.7487 89.3216 13.814L89.8116 13.898C90.3063 13.982 90.759 14.0987 91.1696 14.248C91.5803 14.3973 91.9023 14.612 92.1356 14.892C92.3783 15.172 92.4996 15.5453 92.4996 16.012C92.4996 16.7027 92.243 17.2393 91.7296 17.622C91.2163 18.0047 90.5256 18.196 89.6576 18.196Z" fill="white"/>
</svg>
