<svg xmlns="http://www.w3.org/2000/svg" version="1.1" xmlns:xlink="http://www.w3.org/1999/xlink" xmlns:svgjs="http://svgjs.dev/svgjs" width="1000" height="1000"><g clip-path="url(#SvgjsClipPath1329)"><rect width="1000" height="1000" fill="#1e293b"></rect><g transform="matrix(11.290322580645162,0,0,11.290322580645162,150,166.93548387096774)"><svg xmlns="http://www.w3.org/2000/svg" version="1.1" xmlns:xlink="http://www.w3.org/1999/xlink" xmlns:svgjs="http://svgjs.dev/svgjs" width="62" height="59"><svg viewBox="0 0 62 59" fill="none" xmlns="http://www.w3.org/2000/svg">
    <path d="M37.7088 47.615V22.3634C37.7088 22.1789 37.6072 22.0093 37.4444 21.9224L20.2247 12.7228V23.0909C18.5201 19.7895 17.4297 16.3303 17.0201 11.2075C16.9888 10.8153 17.1959 10.4428 17.543 10.2576L19.9894 8.95223C20.1365 8.87377 20.313 8.87374 20.46 8.95214L41.096 19.9532C41.259 20.04 41.3608 20.2097 41.3608 20.3944V31.8345L41.6069 31.7018L47.4219 20.9144C47.5396 20.6961 47.4795 20.4245 47.2806 20.2763L34.0343 10.404L31.1869 12.3413C31.1869 10.1909 33.4407 7.84473 34.26 7.06285C34.4293 6.90135 34.6871 6.89131 34.8754 7.03013L51.1801 19.0511C51.3816 19.1996 51.4422 19.4743 51.3219 19.6938L44.6689 31.8345L51.6902 40.2794L47.9636 42.2187L42.5725 35.7872L41.3608 38.0352V45.6458L37.7088 47.615Z" fill="white"></path>
    <path d="M10 15.1597C10 14.4028 10.8084 13.9203 11.4746 14.2795L14.2806 15.7926C14.4009 15.8575 14.4894 15.9688 14.5255 16.1007L20.4539 37.7601L20.6902 37.8875L26.2651 23.5318C26.4828 22.9712 27.1426 22.7282 27.6719 23.0136L30.8814 24.7443C31.0432 24.8315 31.1441 25.0005 31.1441 25.1843V50.6083L27.6397 48.7187V31.047L27.4527 30.9462L22.0843 45.0061C21.9767 45.2881 21.6456 45.4111 21.3799 45.2679L19.4521 44.2283C19.3313 44.1632 19.2425 44.0511 19.2067 43.9186L13.6914 23.4879L13.5043 23.3871V41.0964L10 39.2067V15.1597Z" fill="white"></path>
</svg></svg></g></g><defs><clipPath id="SvgjsClipPath1329"><rect width="1000" height="1000" x="0" y="0" rx="350" ry="350"></rect></clipPath></defs></svg>