<svg viewBox="0 0 26 25" fill="none" xmlns="http://www.w3.org/2000/svg">
<path d="M21 5.5V3C21 1.89543 20.1046 1 19 1H3C1.89543 1 1 1.89543 1 3V19C1 20.1046 1.89543 21 3 21H5" stroke="white" stroke-width="1.5"/>
<path d="M11.5 20L13.5 9M16 20L18 9M10 12.3478H20.5M9 16.6522H19.5" stroke="white" stroke-width="1.5"/>
<path d="M23 5H7C5.89543 5 5 5.89543 5 7V22C5 23.1046 5.89543 24 7 24H23C24.1046 24 25 23.1046 25 22V19.3784V14.7568V9.87838V7C25 5.89543 24.1046 5 23 5Z" stroke="white" stroke-width="1.5"/>
</svg>
