<svg viewBox="0 0 168 59" fill="none" xmlns="http://www.w3.org/2000/svg">
    <path d="M37.7088 46.615V21.3634C37.7088 21.1789 37.6071 21.0093 37.4444 20.9224L20.2247 11.7228V22.0909C18.52 18.7895 17.4297 15.3303 17.0201 10.2075C16.9887 9.81534 17.1958 9.44277 17.5429 9.25758L19.9894 7.95223C20.1364 7.87377 20.3129 7.87374 20.46 7.95214L41.096 18.9532C41.2589 19.04 41.3608 19.2097 41.3608 19.3944V30.8345L41.6069 30.7018L47.4219 19.9144C47.5396 19.6961 47.4794 19.4245 47.2806 19.2763L34.0343 9.40396L31.1869 11.3413C31.1869 9.19089 33.4406 6.84473 34.26 6.06285C34.4292 5.90135 34.687 5.89131 34.8753 6.03013L51.1801 18.0511C51.3815 18.1996 51.4421 18.4743 51.3218 18.6938L44.6689 30.8345L51.6902 39.2794L47.9636 41.2187L42.5725 34.7872L41.3608 37.0352V44.6458L37.7088 46.615Z"
          fill="#1E293B"/>
    <path d="M10 15.1597C10 14.4028 10.8084 13.9203 11.4746 14.2795L14.2806 15.7926C14.4009 15.8575 14.4894 15.9688 14.5255 16.1007L20.4539 37.7601L20.6902 37.8875L26.2651 23.5318C26.4828 22.9712 27.1426 22.7282 27.6719 23.0136L30.8814 24.7443C31.0432 24.8315 31.1441 25.0005 31.1441 25.1843V50.6083L27.6397 48.7187V31.047L27.4527 30.9462L22.0843 45.0061C21.9767 45.2881 21.6456 45.4111 21.3799 45.2679L19.4521 44.2283C19.3313 44.1632 19.2425 44.0511 19.2067 43.9186L13.6914 23.4879L13.5043 23.3871V41.0964L10 39.2067V15.1597Z"
          fill="#1E293B"/>
    <path d="M74.4446 37.3265V28.985C74.4446 28.128 74.2661 27.4675 73.9091 27.0034C73.561 26.5392 73.0611 26.3071 72.4095 26.3071C70.5885 26.3071 69.678 27.6192 69.678 30.2435L68.848 25.7046H70.0262C70.1601 24.7495 70.4859 24.0399 71.0036 23.5757C71.5214 23.1026 72.3068 22.8661 73.3601 22.8661C74.8597 22.8661 76.0202 23.3213 76.8413 24.2317C77.6625 25.1422 78.0731 26.4276 78.0731 28.0879V37.3265H74.4446ZM66.0496 37.3265V23.1339H69.2898L69.678 26.1331V37.3265H66.0496ZM88.1285 37.5943C86.0844 37.5943 84.5 36.9516 83.3753 35.6662C82.2506 34.3809 81.6883 32.5688 81.6883 30.2301C81.6883 27.8825 82.2506 26.0705 83.3753 24.7941C84.5 23.5088 86.0844 22.8661 88.1285 22.8661C90.1726 22.8661 91.757 23.5088 92.8817 24.7941C94.0064 26.0705 94.5687 27.8825 94.5687 30.2301C94.5687 32.5688 94.0064 34.3809 92.8817 35.6662C91.757 36.9516 90.1726 37.5943 88.1285 37.5943ZM88.1285 34.1532C89.0033 34.1532 89.6772 33.814 90.1503 33.1356C90.6233 32.4483 90.8599 31.4798 90.8599 30.2301C90.8599 28.9716 90.6233 28.0031 90.1503 27.3247C89.6772 26.6463 89.0033 26.3071 88.1285 26.3071C87.2627 26.3071 86.5887 26.6463 86.1067 27.3247C85.6336 28.0031 85.3971 28.9716 85.3971 30.2301C85.3971 31.4798 85.6336 32.4483 86.1067 33.1356C86.5887 33.814 87.2627 34.1532 88.1285 34.1532ZM107.208 37.5943C104.763 37.5943 102.995 37.1033 101.906 36.1214C100.817 35.1396 100.273 33.5685 100.273 31.4084V29.5607H103.888V31.0603C103.888 32.1404 104.165 32.9258 104.718 33.4168C105.28 33.9078 106.2 34.1532 107.476 34.1532C107.886 34.1532 108.324 34.1309 108.789 34.0863C109.262 34.0327 109.797 33.9658 110.395 33.8854L110.717 37.2729C110.127 37.3801 109.551 37.4604 108.989 37.5139C108.435 37.5675 107.842 37.5943 107.208 37.5943ZM100.273 30.4042V18.8493H103.888V30.4042H100.273ZM96.8714 26.4678V23.1339H110.181V26.4678H96.8714ZM121.388 37.5943C118.933 37.5943 117.036 36.9605 115.697 35.693C114.358 34.4165 113.688 32.5867 113.688 30.2034C113.688 27.8825 114.256 26.0795 115.389 24.7941C116.532 23.5088 118.138 22.8661 120.209 22.8661C122.235 22.8661 123.802 23.4597 124.909 24.6468C126.016 25.834 126.569 27.5612 126.569 29.8285C126.569 30.4712 126.542 31.0826 126.489 31.6628H116.072V29.1456H123.007C123.007 28.1905 122.762 27.4585 122.271 26.9498C121.789 26.441 121.111 26.1866 120.236 26.1866C119.29 26.1866 118.553 26.5258 118.027 27.2042C117.509 27.8736 117.251 28.8287 117.251 30.0695C117.251 31.4084 117.634 32.426 118.401 33.1222C119.179 33.8185 120.281 34.1666 121.709 34.1666C122.352 34.1666 122.985 34.1354 123.61 34.0729C124.235 34.0015 124.873 33.9078 125.525 33.7917L125.873 37.2194C124.963 37.3801 124.132 37.4827 123.383 37.5273C122.633 37.5719 121.968 37.5943 121.388 37.5943ZM135.232 37.5943C134.152 37.5943 133.193 37.5586 132.354 37.4872C131.523 37.4246 130.791 37.3265 130.157 37.1926L130.586 33.7247C131.711 33.8676 132.657 33.9747 133.425 34.0461C134.192 34.1175 134.795 34.1532 135.232 34.1532C136.446 34.1532 137.325 34.0729 137.87 33.9122C138.414 33.7426 138.686 33.4748 138.686 33.1089C138.686 32.8946 138.619 32.725 138.486 32.6C138.352 32.4751 138.138 32.368 137.843 32.2787L133.223 30.9398C132.277 30.6631 131.564 30.2435 131.081 29.6812C130.608 29.1099 130.372 28.3467 130.372 27.3916C130.372 25.8653 131.014 24.7316 132.3 23.9908C133.585 23.241 135.535 22.8661 138.151 22.8661C138.758 22.8661 139.387 22.8884 140.038 22.933C140.699 22.9777 141.396 23.0446 142.128 23.1339L141.739 26.4945C140.927 26.4231 140.218 26.374 139.61 26.3473C139.003 26.3205 138.49 26.3071 138.07 26.3071C136.669 26.3071 135.652 26.3874 135.018 26.5481C134.393 26.6998 134.08 26.9542 134.08 27.3113C134.08 27.5345 134.143 27.7085 134.268 27.8334C134.402 27.9496 134.607 28.0477 134.884 28.128L138.86 29.2259C140.083 29.5563 140.994 30.0383 141.592 30.672C142.199 31.2968 142.502 32.1136 142.502 33.1222C142.502 34.6307 141.904 35.7554 140.709 36.4963C139.512 37.2283 137.687 37.5943 135.232 37.5943Z"
          fill="#1E293B"/>
</svg>
