<svg viewBox="0 0 62 59" fill="none" xmlns="http://www.w3.org/2000/svg">
    <path d="M37.7088 48.615V23.3634C37.7088 23.1789 37.6071 23.0093 37.4444 22.9224L20.2247 13.7228V24.0909C18.52 20.7895 17.4297 17.3303 17.0201 12.2075C16.9887 11.8153 17.1958 11.4428 17.5429 11.2576L19.9894 9.95223C20.1364 9.87377 20.3129 9.87374 20.46 9.95214L41.096 20.9532C41.2589 21.04 41.3608 21.2097 41.3608 21.3944V32.8345L41.6069 32.7018L47.4219 21.9144C47.5396 21.6961 47.4794 21.4245 47.2806 21.2763L34.0343 11.404L31.1869 13.3413C31.1869 11.1909 33.4406 8.84473 34.26 8.06285C34.4292 7.90135 34.687 7.89131 34.8753 8.03013L51.1801 20.0511C51.3815 20.1996 51.4421 20.4743 51.3218 20.6938L44.6689 32.8345L51.6902 41.2794L47.9636 43.2187L42.5725 36.7872L41.3608 39.0352V46.6458L37.7088 48.615Z"
          fill="#1E293B"/>
    <path d="M10 16.1597C10 15.4028 10.8084 14.9203 11.4746 15.2795L14.2806 16.7926C14.4009 16.8575 14.4894 16.9688 14.5255 17.1007L20.4539 38.7601L20.6902 38.8875L26.2651 24.5318C26.4828 23.9712 27.1426 23.7282 27.6719 24.0136L30.8814 25.7443C31.0432 25.8315 31.1441 26.0005 31.1441 26.1843V51.6083L27.6397 49.7187V32.047L27.4527 31.9462L22.0843 46.0061C21.9767 46.2881 21.6456 46.4111 21.3799 46.2679L19.4521 45.2283C19.3313 45.1632 19.2425 45.0511 19.2067 44.9186L13.6914 24.4879L13.5043 24.3871V42.0964L10 40.2067V16.1597Z"
          fill="#1E293B"/>
</svg>
